<!-- Generated by IcoMoon.io -->
<svg version="1.1" xmlns="http://www.w3.org/2000/svg" width="51" height="51" viewBox="0 0 512 512" fill="#205985">
<title></title>
<g id="icomoon-ignore">
</g>
<path d="M284.613 389.128c-0.001-0.022-0.001-0.044-0.002-0.066 0.001 0.022 0.001 0.044 0.002 0.066z"></path>
<path d="M285.298 407.269c-0.006-0.117-0.011-0.233-0.016-0.351 0.005 0.117 0.010 0.233 0.016 0.351z"></path>
<path d="M284.907 398.156c-0.003-0.089-0.006-0.178-0.010-0.268 0.005 0.091 0.008 0.179 0.010 0.268z"></path>
<path d="M480 0h-448c-17.6 0-32 14.4-32 32v448c0 17.6 14.4 32 32 32h246.916c0.022 0 0.044 0.003 0.066 0.003s0.042-0.003 0.063-0.003h200.955c17.6 0 32-14.4 32-32v-448c0-17.6-14.4-32-32-32zM96 112c0-8.836 7.164-16 16-16s16 7.164 16 16v32c0 8.836-7.164 16-16 16s-16-7.164-16-16v-32zM480 480h-187.529c-3.35-21.041-5.453-42.738-6.694-63.802 0.003 0.058 0.005 0.114 0.009 0.172-9.848 1.073-19.789 1.63-29.786 1.63-66.825 0-131.191-24.328-181.242-68.503-7.453-6.578-8.163-17.953-1.584-25.406 6.579-7.452 17.953-8.163 25.407-1.584 43.468 38.364 99.374 59.493 157.419 59.493 9.543 0 19.026-0.583 28.408-1.708-1.096-59.097 3.438-105.957 3.513-106.702 0.449-4.498-1.025-8.976-4.059-12.327-3.033-3.351-7.341-5.263-11.862-5.263h-47.587c0.692-17.307 2.541-46.907 7.479-80.094 9.432-63.38 25.997-112.885 48.076-143.906h200.032v448z"></path>
<path d="M400 160c-8.837 0-16-7.164-16-16v-32c0-8.836 7.163-16 16-16s16 7.164 16 16v32c0 8.836-7.163 16-16 16z"></path>
<path d="M270.248 417.616c-1.823 0.096-3.649 0.168-5.478 0.227 1.829-0.058 3.655-0.132 5.478-0.227z"></path>
<path d="M256 418c2.346 0 4.687-0.037 7.025-0.098-2.338 0.061-4.679 0.098-7.025 0.098z"></path>
<path d="M269.537 381.601c0.392-0.022 0.784-0.042 1.176-0.066-0.391 0.024-0.784 0.044-1.176 0.066z"></path>
<path d="M262.542 381.9c0.537-0.015 1.073-0.036 1.609-0.055-0.536 0.019-1.072 0.041-1.609 0.055z"></path>
<path d="M438.825 324.091c-6.578-7.455-17.954-8.161-25.406-1.584-36.321 32.057-81.329 52.068-129.011 57.785 0.215 11.639 0.647 23.748 1.377 36.078 55.977-6.105 108.893-29.307 151.456-66.873 7.454-6.578 8.163-17.953 1.584-25.406z"></path>
<path d="M285.749 416.374c-2.303 0.25-4.611 0.468-6.924 0.661 2.313-0.192 4.622-0.411 6.924-0.661z"></path>
<path d="M277.744 417.121c-1.953 0.156-3.911 0.288-5.871 0.403 1.96-0.113 3.917-0.248 5.871-0.403z"></path>
</svg>
